<svg viewBox="0 0 64 64" fill="none" xmlns="http://www.w3.org/2000/svg">
  <!-- Outer glow effect -->
  <circle cx="32" cy="32" r="30" fill="url(#glow)" opacity="0.3" />

  <!-- Main circular background with gradient -->
  <circle cx="32" cy="32" r="28" fill="url(#mainGradient)" />

  <!-- Inner rotating ring effect -->
  <circle cx="32" cy="32" r="26" fill="none" stroke="url(#ringGradient)" stroke-width="0.5" opacity="0.4" />

  <!-- Dream portal/gateway shape -->
  <path
    d="M32 8 L40 16 L48 12 L44 20 L52 24 L44 28 L48 36 L40 32 L32 40 L24 32 L16 36 L20 28 L12 24 L20 20 L16 12 L24 16 Z"
    fill="url(#portalGradient)"
    opacity="0.8"
  />

  <!-- Central mystical eye/portal -->
  <ellipse cx="32" cy="24" rx="12" ry="8" fill="url(#eyeGradient)" opacity="0.9" />
  <ellipse cx="32" cy="24" rx="6" ry="4" fill="url(#pupilGradient)" />
  <circle cx="32" cy="24" r="2" fill="white" opacity="0.9" />

  <!-- Floating particles/sparkles -->
  <circle cx="18" cy="18" r="1.5" fill="#FBBF24" opacity="0.8" />
  <circle cx="46" cy="22" r="1.2" fill="#60A5FA" opacity="0.8" />
  <circle cx="26" cy="44" r="1" fill="#14B8A6" opacity="0.8" />
  <circle cx="42" cy="46" r="1.3" fill="#A78BFA" opacity="0.8" />

  <!-- Mystical runes/symbols around the edge -->
  <path d="M32 4 L32 8" stroke="url(#runeGradient)" stroke-width="1" stroke-linecap="round" />
  <path d="M50 14 L47 16" stroke="url(#runeGradient)" stroke-width="1" stroke-linecap="round" />
  <path d="M60 32 L56 32" stroke="url(#runeGradient)" stroke-width="1" stroke-linecap="round" />
  <path d="M50 50 L47 48" stroke="url(#runeGradient)" stroke-width="1" stroke-linecap="round" />
  <path d="M32 60 L32 56" stroke="url(#runeGradient)" stroke-width="1" stroke-linecap="round" />
  <path d="M14 50 L17 48" stroke="url(#runeGradient)" stroke-width="1" stroke-linecap="round" />
  <path d="M4 32 L8 32" stroke="url(#runeGradient)" stroke-width="1" stroke-linecap="round" />
  <path d="M14 14 L17 16" stroke="url(#runeGradient)" stroke-width="1" stroke-linecap="round" />

  <!-- Gradient definitions -->
  <defs>
    <radialGradient id="glow" cx="50%" cy="50%">
      <stop offset="0%" stop-color="#8B5CF6" />
      <stop offset="100%" stop-color="#06B6D4" />
    </radialGradient>

    <linearGradient id="mainGradient" x1="0" y1="0" x2="64" y2="64" gradientUnits="userSpaceOnUse">
      <stop offset="0%" stop-color="#6366F1" />
      <stop offset="30%" stop-color="#8B5CF6" />
      <stop offset="60%" stop-color="#06B6D4" />
      <stop offset="100%" stop-color="#14B8A6" />
    </linearGradient>

    <linearGradient id="ringGradient" x1="0" y1="0" x2="64" y2="64">
      <stop offset="0%" stop-color="#FBBF24" />
      <stop offset="50%" stop-color="#F472B6" />
      <stop offset="100%" stop-color="#60A5FA" />
    </linearGradient>

    <linearGradient id="portalGradient" x1="12" y1="8" x2="52" y2="40">
      <stop offset="0%" stop-color="#A78BFA" />
      <stop offset="50%" stop-color="#60A5FA" />
      <stop offset="100%" stop-color="#34D399" />
    </linearGradient>

    <linearGradient id="eyeGradient" x1="20" y1="16" x2="44" y2="32">
      <stop offset="0%" stop-color="#E0E7FF" />
      <stop offset="100%" stop-color="#BAE6FD" />
    </linearGradient>

    <linearGradient id="pupilGradient" x1="26" y1="20" x2="38" y2="28">
      <stop offset="0%" stop-color="#4F46E5" />
      <stop offset="100%" stop-color="#7C3AED" />
    </linearGradient>

    <linearGradient id="runeGradient" x1="0" y1="0" x2="64" y2="64">
      <stop offset="0%" stop-color="#FBBF24" />
      <stop offset="100%" stop-color="#60A5FA" />
    </linearGradient>
  </defs>
</svg>
